<svg width="159" height="160" viewBox="0 0 159 160" fill="none" xmlns="http://www.w3.org/2000/svg">
<rect width="159" height="159" transform="translate(0 0.5)" fill="white" fill-opacity="0.01"/>
<path d="M109.312 99.875H99.375V149.562H109.312V99.875Z" fill="white"/>
<path d="M29.8125 114.781H19.875V149.562H29.8125V114.781Z" fill="white"/>
<path d="M79.5 149.562H69.5625V129.688C69.5611 128.37 69.0371 127.107 68.1056 126.176C67.1741 125.244 65.9111 124.72 64.5938 124.719H54.6562V149.562H44.7188V114.781H64.5938C68.5458 114.786 72.3347 116.357 75.1293 119.152C77.9238 121.947 79.4957 125.735 79.5 129.688V149.562Z" fill="white"/>
<path d="M37.2656 109.812C32.655 109.807 28.2348 107.973 24.9746 104.713C21.7143 101.453 19.8804 97.0325 19.875 92.4219V84.9688H9.9375V75.0312H29.8125V92.4219C29.8125 94.3986 30.5977 96.2943 31.9955 97.692C33.3932 99.0898 35.2889 99.875 37.2656 99.875C39.2423 99.875 41.1381 99.0898 42.5358 97.692C43.9335 96.2943 44.7188 94.3986 44.7188 92.4219V75.0312H64.5938V84.9688H54.6562V92.4219C54.6509 97.0325 52.8169 101.453 49.5567 104.713C46.2965 107.973 41.8763 109.807 37.2656 109.812Z" fill="white"/>
<path d="M134.156 50.1875H106.103C103.121 50.1779 100.206 51.0666 97.7374 52.7379C95.2685 54.4092 93.3604 56.7855 92.2617 59.5571L85.0973 77.4719L67.1705 99.881L74.9317 106.087L93.3161 83.1065L101.49 63.2508C101.855 62.3264 102.491 61.5336 103.314 60.976C104.137 60.4184 105.109 60.1218 106.103 60.125H134.156C135.474 60.1262 136.737 60.6501 137.668 61.5816C138.6 62.5132 139.124 63.7763 139.125 65.0938V99.875H124.219V149.562H134.156V109.812H139.125C141.76 109.809 144.286 108.762 146.149 106.899C148.012 105.036 149.059 102.51 149.062 99.875V65.0938C149.058 61.1417 147.486 57.3528 144.692 54.5582C141.897 51.7637 138.108 50.1918 134.156 50.1875Z" fill="white"/>
<path d="M119.25 45.2188C115.319 45.2188 111.476 44.0531 108.208 41.8692C104.94 39.6853 102.392 36.5813 100.888 32.9496C99.3836 29.3179 98.99 25.3217 99.7569 21.4663C100.524 17.611 102.417 14.0696 105.196 11.29C107.976 8.51044 111.517 6.61753 115.373 5.85065C119.228 5.08377 123.224 5.47736 126.856 6.98165C130.488 8.48594 133.592 11.0334 135.775 14.3018C137.959 17.5702 139.125 21.4129 139.125 25.3438C139.119 30.6131 137.023 35.665 133.297 39.391C129.571 43.117 124.519 45.2128 119.25 45.2188ZM119.25 15.4063C117.285 15.4063 115.363 15.9891 113.729 17.081C112.095 18.173 110.821 19.725 110.069 21.5408C109.317 23.3567 109.12 25.3548 109.503 27.2825C109.887 29.2102 110.833 30.9808 112.223 32.3706C113.613 33.7604 115.384 34.7069 117.311 35.0903C119.239 35.4738 121.237 35.277 123.053 34.5248C124.869 33.7727 126.421 32.4989 127.513 30.8647C128.605 29.2305 129.188 27.3092 129.188 25.3438C129.185 22.709 128.137 20.183 126.274 18.3199C124.411 16.4569 121.885 15.409 119.25 15.4063Z" fill="white"/>
</svg>
